<svg xmlns="http://www.w3.org/2000/svg" width="105" height="82" viewBox="0 0 105 82" fill="none" preserveAspectRatio="xMidYMid meet">
<g clip-path="url(#clip0_504_19)">
<path d="M76.9486 81.9944C73.6884 81.9944 70.8877 81.7703 68.5453 81.3216C66.2349 80.8729 64.2722 80.2867 62.6583 79.5619C61.0758 78.8371 59.8097 78.009 58.86 77.0774C57.9103 76.1108 57.1664 75.1273 56.6288 74.127C56.122 73.0915 55.7897 72.0734 55.6317 71.0726C55.4733 70.0718 55.3941 69.1576 55.3941 68.3294C55.3941 68.0437 55.6078 67.812 55.8717 67.812H68.5458C69.4805 67.812 70.2595 68.605 70.5394 69.5716C70.7611 70.193 71.1722 70.7792 71.7736 71.3313C72.4069 71.8493 73.2928 72.298 74.4324 72.6775C75.5719 73.0569 77.107 73.2469 79.0378 73.2469H79.4648C81.3642 73.2469 82.8675 73.1435 83.9752 72.9362C85.1147 72.7289 85.9852 72.4702 86.5866 72.16C87.2199 71.8147 87.6309 71.4352 87.8208 71.0212C88.0111 70.5725 88.1058 70.1064 88.1058 69.6236V69.5716C88.1058 69.0883 88.0111 68.6574 87.8208 68.2775C87.6628 67.8634 87.2986 67.5013 86.7291 67.1906C86.1595 66.8799 85.3205 66.6385 84.2128 66.4658C83.1366 66.2932 81.6647 66.1725 79.7972 66.1037L73.2455 65.8964C69.8274 65.793 66.9942 65.4136 64.747 64.7576C62.5317 64.0675 60.7589 63.2047 59.4295 62.1697C58.132 61.1343 57.2142 59.944 56.6761 58.5979C56.1699 57.2523 55.9163 55.8201 55.9163 54.3018V53.8358C55.9163 52.2829 56.2013 50.7991 56.7708 49.3843C57.3408 47.935 58.3852 46.6754 59.9044 45.6057C61.4236 44.5359 63.4969 43.6905 66.1238 43.0693C68.7511 42.4137 72.1219 42.0859 76.2366 42.0859H80.4619C84.8302 42.0859 88.4067 42.4309 91.192 43.1211C93.9774 43.8113 96.1613 44.7257 97.7438 45.8645C99.3263 47.0033 100.418 48.3145 101.02 49.7984C101.621 51.248 101.922 52.7316 101.922 54.2499C101.922 54.4786 101.751 54.6639 101.54 54.6639H88.4039C87.7495 54.6639 87.1917 54.118 86.9189 53.4737C86.7605 52.9903 86.3808 52.5416 85.7794 52.1275C85.2099 51.6793 84.3553 51.3167 83.2158 51.0407C82.1081 50.7301 80.6044 50.5748 78.7055 50.5748H78.2306C76.4583 50.5748 75.0497 50.6611 74.0053 50.8337C72.9924 50.9719 72.217 51.1787 71.6789 51.4547C71.1408 51.6962 70.7925 51.9895 70.6341 52.3348C70.5075 52.6796 70.4442 53.0423 70.4442 53.4217V53.4737C70.4442 53.8531 70.5234 54.2152 70.6819 54.5606C70.8717 54.9059 71.2355 55.216 71.7736 55.4921C72.3436 55.7681 73.1189 55.9928 74.1 56.1654C75.113 56.3034 76.4583 56.3895 78.1355 56.4241L84.4978 56.5795C87.8527 56.6829 90.7013 56.9762 93.0436 57.4591C95.4174 57.9424 97.3481 58.6672 98.8355 59.6333C100.355 60.5649 101.447 61.7384 102.112 63.1532C102.808 64.5681 103.156 66.2417 103.156 68.1741V68.8988C103.156 70.5205 102.887 72.1254 102.349 73.7124C101.811 75.2653 100.751 76.6629 99.1678 77.9056C97.5853 79.1132 95.37 80.0967 92.5214 80.8561C89.6728 81.6149 85.9219 81.9944 81.2691 81.9944H76.9486Z" fill="#00FF09"/>
<path d="M27.9165 42.0395C31.7147 42.0395 34.9906 42.35 37.7443 42.9712C40.4979 43.5578 42.8243 44.3688 44.7234 45.404C46.6225 46.4048 48.1575 47.5608 49.3289 48.8721C50.4998 50.1834 51.4017 51.5464 52.035 52.9613C52.6678 54.3762 53.0953 55.7911 53.3166 57.2059C53.5383 58.6208 53.6489 59.9318 53.6489 61.1399V62.6928C53.6489 63.9004 53.5383 65.2119 53.3166 66.6268C53.1267 68.0417 52.6997 69.4734 52.035 70.9229C51.4017 72.3378 50.4998 73.718 49.3289 75.0636C48.1894 76.3751 46.6541 77.5486 44.7234 78.5835C42.8243 79.6189 40.4979 80.4471 37.7443 81.0685C34.9906 81.6893 31.7147 82 27.9165 82H25.7801C21.9819 82 18.6901 81.6893 15.9048 81.0685C13.1512 80.4471 10.8248 79.6189 8.9257 78.5835C7.02661 77.5486 5.4915 76.3751 4.32042 75.0636C3.14932 73.718 2.24725 72.3378 1.61422 70.9229C0.981192 69.4734 0.553898 68.0417 0.332338 66.6268C0.110778 65.2119 0 63.9004 0 62.6928V61.1399C0 59.9318 0.094958 58.6208 0.284866 57.2059C0.506428 55.7911 0.933717 54.3762 1.56675 52.9613C2.23142 51.5464 3.14932 50.1834 4.32042 48.8721C5.4915 47.5608 7.02661 46.4048 8.9257 45.404C10.8248 44.3688 13.1512 43.5578 15.9048 42.9712C18.6585 42.35 21.9503 42.0395 25.7801 42.0395H27.9165ZM39.6908 61.502C39.6908 60.4671 39.5009 59.4143 39.1211 58.3448C38.7729 57.2747 38.1241 56.3085 37.1745 55.4457C36.225 54.5488 34.9115 53.8241 33.234 53.272C31.5881 52.6853 29.4516 52.3919 26.8245 52.3919C24.1658 52.3919 21.9977 52.6853 20.3202 53.272C18.6427 53.8241 17.3291 54.5488 16.3796 55.4457C15.4617 56.3085 14.8287 57.2747 14.4805 58.3448C14.1323 59.4143 13.9583 60.4671 13.9583 61.502V62.1234C13.9583 63.1242 14.1323 64.1938 14.4805 65.3326C14.8603 66.4368 15.525 67.4549 16.4745 68.3865C17.4241 69.318 18.7218 70.0947 20.3677 70.7156C22.0452 71.3023 24.1975 71.5957 26.8245 71.5957C29.42 71.5957 31.5564 71.3023 33.234 70.7156C34.9115 70.1293 36.225 69.3873 37.1745 68.4899C38.1241 67.5583 38.7729 66.5402 39.1211 65.436C39.5009 64.3318 39.6908 63.2622 39.6908 62.2268V61.502Z" fill="#00FF09"/>
<path d="M100.655 0C103.055 0 105 2.10891 105 4.71038C105 7.31185 103.055 9.42073 100.655 9.42073H71.2913C70.065 9.42073 69.0708 10.4984 69.0708 11.8277C69.0708 13.157 70.065 14.2346 71.2913 14.2346H100.109C102.522 14.2346 104.478 16.3551 104.478 18.9709C104.478 21.5867 102.522 23.7072 100.109 23.7072H73.6261C71.1103 23.7072 69.0708 25.9181 69.0708 28.6454V33.573C69.0708 36.3003 67.0313 38.5112 64.5155 38.5112H60.285C57.7692 38.5112 55.7297 36.3003 55.7297 33.573V4.93822C55.7297 2.21091 57.7692 0 60.285 0H100.655Z" fill="#00FF09"/>
<path d="M1.94588 4.93821C1.94588 2.21091 3.98541 0 6.50133 0H27.0138C32.1097 0 36.3035 0.534879 39.5952 1.60463C42.887 2.63988 45.4823 4.02021 47.3812 5.7456C49.312 7.43653 50.6414 9.36898 51.3694 11.543C52.1292 13.717 52.5089 15.9428 52.5089 18.2204V19.7732C52.5089 21.2226 52.3664 22.7064 52.0819 24.2248C51.7969 25.7086 51.2906 27.1407 50.5622 28.5211C49.8661 29.9014 48.9009 31.2127 47.6663 32.455C46.4319 33.6628 44.8652 34.7153 42.9661 35.6125C41.0986 36.5097 38.8514 37.2172 36.2243 37.7348C33.6289 38.2524 30.5745 38.5112 27.0613 38.5112H6.50133C3.98541 38.5112 1.94588 36.3003 1.94588 33.573V4.93821ZM15.4294 23.3758C15.4294 26.1031 17.4689 28.314 19.9848 28.314H25.447C28.3906 28.314 30.717 28.0034 32.4262 27.3823C34.167 26.7611 35.4805 26.0019 36.3667 25.1047C37.2847 24.173 37.8702 23.1896 38.1234 22.1543C38.3766 21.0845 38.5032 20.1355 38.5032 19.3073V18.9968C38.5032 18.1686 38.3766 17.2369 38.1234 16.2016C37.8702 15.1664 37.2847 14.2002 36.3667 13.3029C35.4805 12.3712 34.167 11.612 32.4262 11.0254C30.717 10.4042 28.3906 10.0936 25.447 10.0936H19.9848C17.4689 10.0936 15.4294 12.3046 15.4294 15.0319V23.3758Z" fill="#00FF09"/>
</g>
<defs>
<clipPath id="clip0_504_19">
<rect width="105" height="82" fill="white"/>
</clipPath>
</defs>
</svg>