<svg xmlns="http://www.w3.org/2000/svg" width="63" height="176" viewBox="0 0 63 176" fill="none" preserveAspectRatio="xMidYMid meet">
<path d="M63 48.1072C63 23.4675 31.5 -2.75382e-06 31.5 -2.75382e-06C31.5 22.1874 35 32.7708 39.0659 37.5872C35.8459 40.2331 33.25 44.2517 33.25 48.6927C33.25 49.5492 33.4122 50.4081 33.7062 51.2552C32.991 51.118 32.2548 51.0393 31.5 51.0393C30.7452 51.0393 30.009 51.118 29.2938 51.2552C29.5878 50.4069 29.75 49.548 29.75 48.6927C29.75 44.2517 27.1542 40.2331 23.9342 37.5872C28 32.7708 31.5 22.1874 31.5 -2.75382e-06C31.5 -2.75382e-06 -1.92388e-06 23.4664 -4.07805e-06 48.1072C-5.41254e-06 63.3721 11.417 64.4492 20.1063 60.271C19.9313 61.0782 19.8345 61.9136 19.8345 62.7737C19.8345 67.8072 22.9915 72.0875 27.4178 73.7536L27.4178 85.0667L23.3345 85.0667L23.3345 92.1066L27.4178 92.1066L27.4178 126.133L23.3345 126.133L23.3345 133.173L27.4178 133.173L27.4178 176L35.5845 176L35.5845 163.094L47.8345 163.094L47.8345 170.72L56.5845 170.72L56.5845 163.094L56.5845 156.054L47.8345 156.054L35.5845 156.054L35.5845 150.774L47.8345 150.774L56.5845 150.774L56.5845 143.734L56.5845 136.107L47.8345 136.107L47.8345 143.734L35.5845 143.734L35.5845 133.174L39.6678 133.174L39.6678 126.134L35.5845 126.134L35.5845 92.1078L39.6678 92.1078L39.6678 85.0679L35.5845 85.0679L35.5845 73.7548C40.0108 72.0887 43.1678 67.8084 43.1678 62.7749C43.1678 61.9148 43.0698 61.0794 42.896 60.2722C51.583 64.4492 63 63.3721 63 48.1072ZM13.9989 52.2138C10.1314 52.2138 6.99886 49.0635 6.99886 45.1739C6.99886 41.2844 10.1314 38.134 13.9989 38.134C17.8664 38.134 20.9989 41.2844 20.9989 45.1739C20.9989 49.0635 17.8664 52.2138 13.9989 52.2138ZM42 45.1739C42 41.2844 45.1325 38.134 49 38.134C52.8675 38.134 56 41.2844 56 45.1739C56 49.0635 52.8675 52.2138 49 52.2138C45.1325 52.2138 42 49.0635 42 45.1739Z" fill="#00FF09"/>
</svg>